<svg id="Layer_1" data-name="Layer 1" xmlns="http://www.w3.org/2000/svg" viewBox="0 0 275.27 63.35"><defs><style>.cls-1{fill:#e85f5c;}.cls-2,.cls-5{fill:#dbd5d3;}.cls-3{fill:#5fbdea;}.cls-4{fill:#4e86c5;}.cls-5{font-size:40.42px;font-family:Cubano-Regular, Cubano;}.cls-6{letter-spacing:-0.02em;}.cls-7{fill:#231f20;}.cls-8,.cls-9{fill:#60bdeb;}.cls-9{letter-spacing:-0.01em;}</style></defs><title>cs</title><rect class="cls-1" x="468.97" y="273.71" width="16.31" height="7.46" rx="0.92" ry="0.92" transform="translate(-267.34 -264.3) rotate(-1.11)"/><rect class="cls-1" x="478.3" y="274.67" width="7.46" height="9.2" rx="0.92" ry="0.92" transform="translate(-280.11 -239.8) rotate(-3.94)"/><path class="cls-2" d="M503.81,294.37H488.07l3,20.11h11.73a3.86,3.86,0,0,1,0,7.71H487.32a3.85,3.85,0,0,1-2.55-1l-.18-.17a3.83,3.83,0,0,1-1.13-2.19l-4.17-27.59h0l0-.31a.75.75,0,0,1,0-.12c0-.11,0-.22,0-.34V290a3.87,3.87,0,0,1,3.86-3.86h20.73a3.87,3.87,0,0,1,3.86,3.86v.51A3.87,3.87,0,0,1,503.81,294.37Z" transform="translate(-262.06 -273.57)"/><path class="cls-3" d="M536.65,305.68s0,.07,0,.1,0,.07,0,.1v12.47a3.87,3.87,0,0,1-3.86,3.86H513.31a3.91,3.91,0,0,1-3.91-3.91,3.8,3.8,0,0,1,3.8-3.8h15.74v-5H513.26a3.87,3.87,0,0,1-3.86-3.86V290.25a1.19,1.19,0,0,1,0-.15.24.24,0,0,1,0,0,3.87,3.87,0,0,1,3.85-3.66h20a4.11,4.11,0,0,1,0,8.22h-16v7.21h15.6A3.87,3.87,0,0,1,536.65,305.68Z" transform="translate(-262.06 -273.57)"/><path class="cls-4" d="M513.26,286.39a3.87,3.87,0,0,0-3.85,3.66c0-.06,0-.13,0-.2a3.46,3.46,0,0,1,3.46-3.46Z" transform="translate(-262.06 -273.57)"/><circle class="cls-1" cx="236.26" cy="55.36" r="4.01"/><circle class="cls-1" cx="258.29" cy="55.36" r="4.01"/><path class="cls-4" d="M479.23,290.86a3.77,3.77,0,0,1,0-.81v.47C479.21,290.63,479.22,290.74,479.23,290.86Z" transform="translate(-262.06 -273.57)"/><text class="cls-5" transform="translate(0 44.67)">CA<tspan class="cls-6" x="46.08" y="0">R</tspan><tspan x="69.23" y="0">T</tspan><tspan class="cls-7" x="93.16" y="0"> </tspan><tspan class="cls-8" x="105.29" y="0">S</tspan><tspan class="cls-9" x="128.4" y="0">A</tspan><tspan class="cls-8" x="151.44" y="0">VY</tspan></text></svg>