<svg id="Layer_1" data-name="Layer 1" xmlns="http://www.w3.org/2000/svg" viewBox="0 0 125.78 221.66"><defs><style>.cls-1{fill:#fff;}.cls-2{fill:#4f9d82;}.cls-3{fill:#2e7961;}.cls-4{fill:#5baa8f;}.cls-5{fill:#23725b;}.cls-6{fill:#408d75;}.cls-7{fill:#76b099;}.cls-8{fill:#e5414c;}.cls-9{fill:#dc2527;}.cls-10{fill:#ea4e5f;}.cls-11{fill:#d12228;}.cls-12{fill:#e7525e;}.cls-13{fill:#d52028;}.cls-14{fill:#df3843;}.cls-15{fill:#d81f28;}.cls-16{fill:#e84758;}.cls-17{fill:#e86a79;}.cls-18{fill:#d22228;}.cls-19{fill:#d52128;}.cls-20{fill:#ea6375;}.cls-21{fill:#d42128;}.cls-22{fill:#df3844;}.cls-23{fill:#e74d5a;}.cls-24{fill:#da2328;}.cls-25{fill:#e85d6f;}.cls-26{fill:#cd2028;}.cls-27{fill:#3e4581;}.cls-28{fill:#809dca;}.cls-29{fill:#1d3151;}.cls-30,.cls-32{fill:#33a549;}.cls-31{fill:#136a36;}.cls-32{stroke:#33a549;}.cls-32,.cls-33,.cls-34,.cls-35{stroke-miterlimit:10;}.cls-33{fill:#ef6060;stroke:#f06060;}.cls-34{fill:#e85653;stroke:#e95552;}.cls-35{stroke:#000;}.cls-36{fill:#555d9a;}.cls-37{fill:#6980b2;}.cls-38{fill:#25496b;}.cls-39{fill:#335180;}.cls-40{fill:#545e9e;}.cls-41{fill:#2e4c7b;}.cls-42{fill:#3f5a86;}.cls-43{fill:#59629f;}.cls-44{fill:#243f64;}.cls-45{fill:#5f7bae;}.cls-46{fill:#214367;}.cls-47{fill:#fbe261;}.cls-48{fill:#417136;}.cls-49{fill:#5d9b43;}.cls-50{fill:#f69248;}.cls-51{fill:#c06829;}.cls-52{fill:#5db560;}.cls-53{fill:#e75f5c;}.cls-54{fill:#98d09f;}.cls-55{fill:#335281;}.cls-56{fill:#4d85c5;}.cls-57{fill:#7397cb;}</style></defs><title>CSsplashscreen</title><path class="cls-1" d="M458.34,639.21h0l-.11.27A1.43,1.43,0,0,0,458.34,639.21Z" transform="translate(-333.11 -500.15)"/><path class="cls-2" d="M406.94,643c2,1.71,6.08,2.43,6.08,2.43l1.17-1.65" transform="translate(-333.11 -500.15)"/><polygon class="cls-3" points="78.05 138.94 80.12 141.22 82.02 142.39 83.56 141.82 78.05 138.94"/><polyline class="cls-4" points="77.66 138.33 84.73 141.2 84.5 142.32 77.24 138.55"/><polyline class="cls-4" points="79.54 137.44 79.88 136.89 81.79 137.75 83.9 140.93 83.04 140.56 81.88 138.92"/><polygon class="cls-5" points="83.84 141.41 83.91 138.29 84.08 135.59 84.92 142.12 83.84 141.41"/><polyline class="cls-6" points="83.86 135.34 85.38 137.83 85.86 140.2 84.66 141.57"/><polygon class="cls-7" points="86.65 139.38 87.7 136.61 87.93 134.17 87.84 131.96 89.17 133.84 89.37 135.85 88.65 137.66 87.87 139.38 86.65 139.38"/><circle class="cls-8" cx="416.68" cy="649.42" r="2.91" transform="translate(-632.17 -138.99) rotate(-35.38)"/><circle class="cls-8" cx="412.29" cy="647.46" r="2.98" transform="translate(-631.84 -141.89) rotate(-35.38)"/><circle class="cls-9" cx="416.04" cy="644.8" r="3.06" transform="translate(-629.61 -140.22) rotate(-35.38)"/><circle class="cls-10" cx="420.32" cy="642.31" r="2.98" transform="translate(-627.38 -138.2) rotate(-35.38)"/><circle class="cls-9" cx="424.49" cy="639.66" r="3.06" transform="translate(-625.07 -136.27) rotate(-35.38)"/><circle class="cls-11" cx="412.83" cy="652.06" r="3.06" transform="translate(-634.41 -140.73) rotate(-35.38)"/><circle class="cls-11" cx="424.41" cy="644.83" r="2.91" transform="translate(-628.08 -135.36) rotate(-35.38)"/><circle class="cls-12" cx="420.7" cy="647.11" r="2.91" transform="translate(-609.68 -184.03) rotate(-31.58)"/><circle class="cls-12" cx="428.41" cy="642.05" r="2.96" transform="translate(-625.73 -133.56) rotate(-35.38)"/><circle class="cls-13" cx="414.95" cy="656.34" r="2.84" transform="translate(-636.49 -138.72) rotate(-35.38)"/><circle class="cls-14" cx="417.69" cy="654.37" r="3.1" transform="translate(-634.85 -137.49) rotate(-35.38)"/><circle class="cls-15" cx="421.27" cy="651.83" r="3.1" transform="translate(-632.72 -135.89) rotate(-35.38)"/><circle class="cls-16" cx="425.02" cy="649.66" r="2.89" transform="translate(-630.77 -134.12) rotate(-35.38)"/><circle class="cls-17" cx="427.43" cy="647.1" r="2.81" transform="translate(-628.84 -133.19) rotate(-35.38)"/><circle class="cls-18" cx="431.12" cy="644.68" r="2.98" transform="translate(-626.76 -131.5) rotate(-35.38)"/><circle class="cls-19" cx="418.99" cy="659.26" r="2.71" transform="translate(-637.44 -135.84) rotate(-35.38)"/><circle class="cls-20" cx="422.24" cy="656.39" r="2.96" transform="translate(-635.18 -134.49) rotate(-35.38)"/><circle class="cls-21" cx="425.66" cy="654.1" r="2.84" transform="translate(-633.22 -132.92) rotate(-35.38)"/><circle class="cls-22" cx="429.69" cy="651.25" r="3" transform="translate(-630.82 -131.12) rotate(-35.38)"/><circle class="cls-19" cx="432.64" cy="648.74" r="2.74" transform="translate(-628.82 -129.87) rotate(-35.38)"/><circle class="cls-23" cx="423.45" cy="660.93" r="2.82" transform="translate(-637.58 -132.94) rotate(-35.38)"/><circle class="cls-24" cx="427.1" cy="658.34" r="2.82" transform="translate(-635.41 -131.31) rotate(-35.38)"/><circle class="cls-25" cx="429.87" cy="656.37" r="2.82" transform="translate(-633.76 -130.07) rotate(-35.38)"/><circle class="cls-26" cx="433.71" cy="653.56" r="2.75" transform="translate(-631.42 -128.37) rotate(-35.38)"/><circle class="cls-27" cx="446.7" cy="667.94" r="6.28" transform="translate(-608.41 520.5) rotate(-82.26)"/><circle class="cls-28" cx="445.3" cy="668.75" r="3.47" transform="translate(-343.31 -493.25) rotate(-0.88)"/><polygon class="cls-29" points="114.68 168.56 113.05 169.4 112.81 171.21 111.52 169.92 109.72 170.25 110.55 168.63 109.67 167.02 111.48 167.3 112.73 165.97 113.03 167.78 114.68 168.56"/><path class="cls-1" d="M458.89,638.86h0l-.11.27A1.43,1.43,0,0,0,458.89,638.86Z" transform="translate(-333.11 -500.15)"/><path class="cls-30" d="M388.39,642.17,387,640.8l0,0a2.69,2.69,0,0,0-2.4-.49l1.68,1.63A3,3,0,0,1,388.39,642.17Z" transform="translate(-333.11 -500.15)"/><path class="cls-30" d="M380.65,644.72,379,643.09a27.18,27.18,0,0,0-2.23,1.89l1.68,1.63A27.18,27.18,0,0,1,380.65,644.72Z" transform="translate(-333.11 -500.15)"/><path class="cls-30" d="M382.39,643.52a16.05,16.05,0,0,1,1.64-.89L382.35,641a16.05,16.05,0,0,0-1.64.89Z" transform="translate(-333.11 -500.15)"/><path class="cls-30" d="M376.53,648.57l-1.68-1.63c-.5.57-1,1.15-1.4,1.72l1.68,1.63C375.55,649.72,376,649.14,376.53,648.57Z" transform="translate(-333.11 -500.15)"/><path class="cls-30" d="M373.9,652.09l-1.68-1.63a17.42,17.42,0,0,0-1,1.86L372.9,654A17.42,17.42,0,0,1,373.9,652.09Z" transform="translate(-333.11 -500.15)"/><path class="cls-30" d="M372.43,658.61a3.4,3.4,0,0,1-.24-2.66l-.28.28-1.49-1.44a2.75,2.75,0,0,0,.56,2.47l0,0Z" transform="translate(-333.11 -500.15)"/><path class="cls-31" d="M382.39,643.52h0l-1.68-1.63c-.57.35-1.14.75-1.74,1.19l1.68,1.63C381.24,644.27,381.82,643.88,382.39,643.52Z" transform="translate(-333.11 -500.15)"/><path class="cls-31" d="M374.85,646.95q.46-.52,1-1t.95-.93" transform="translate(-333.11 -500.15)"/><path class="cls-31" d="M377.47,647.54q.47-.48.95-.93L376.74,645q-.48.45-.95.93t-1,1l1.68,1.63Q377,648.05,377.47,647.54Z" transform="translate(-333.11 -500.15)"/><path class="cls-31" d="M372.22,650.46c.36-.59.77-1.19,1.23-1.8" transform="translate(-333.11 -500.15)"/><path class="cls-31" d="M375.12,650.29l-1.68-1.63c-.45.61-.87,1.21-1.23,1.8l1.68,1.63C374.26,651.5,374.67,650.9,375.12,650.29Z" transform="translate(-333.11 -500.15)"/><path class="cls-31" d="M370.43,654.8a9.56,9.56,0,0,1,.79-2.47" transform="translate(-333.11 -500.15)"/><path class="cls-31" d="M372.2,656a10.46,10.46,0,0,1,.7-2l-1.68-1.63a9.56,9.56,0,0,0-.79,2.47l1.48,1.44Z" transform="translate(-333.11 -500.15)"/><path class="cls-31" d="M384.8,642.31a7.82,7.82,0,0,1,1.46-.41l-1.68-1.63-2.23.74,1.68,1.63Q384.43,642.45,384.8,642.31Z" transform="translate(-333.11 -500.15)"/><path class="cls-31" d="M383.16,640.68q-.39.15-.8.34l2.23-.74A7.77,7.77,0,0,0,383.16,640.68Z" transform="translate(-333.11 -500.15)"/><path class="cls-1" d="M388.67,642.39a1.77,1.77,0,0,0-.28-.22l.25.25Z" transform="translate(-333.11 -500.15)"/><path class="cls-1" d="M372.66,658.89l0,0-.25-.25A1.77,1.77,0,0,0,372.66,658.89Z" transform="translate(-333.11 -500.15)"/><path class="cls-1" d="M378.37,648.41c-4.25,4.38-6.52,9.12-5.27,10.84l1.68,1.63c-1.25-1.73,1-6.47,5.27-10.84s8.92-6.8,10.68-5.6L389,642.81C387.29,641.62,382.62,644,378.37,648.41Z" transform="translate(-333.11 -500.15)"/><path class="cls-1" d="M386.27,641.9l-1.45,1.49-.78-.76a16.05,16.05,0,0,0-1.64.89L381,645l-.3-.29a27.18,27.18,0,0,0-2.23,1.89l.46.45-1.9,2-.46-.45c-.5.57-1,1.15-1.4,1.72l.74.71-1.5,1.54-.47-.45a17.42,17.42,0,0,0-1,1.86l.64.62L372.2,656a3.4,3.4,0,0,0,.24,2.66l.25.25.41.4c-1.25-1.73,1-6.47,5.27-10.84s8.92-6.8,10.68-5.6l-.41-.4-.25-.25A3,3,0,0,0,386.27,641.9Z" transform="translate(-333.11 -500.15)"/><path class="cls-1" d="M382.39,643.52c-.57.35-1.14.75-1.74,1.19l.3.29Z" transform="translate(-333.11 -500.15)"/><path class="cls-1" d="M378.88,647.06l-.46-.45q-.48.45-.95.93t-1,1l.46.44Z" transform="translate(-333.11 -500.15)"/><path class="cls-1" d="M375.86,651l-.74-.71c-.45.61-.87,1.21-1.23,1.8l.47.45Z" transform="translate(-333.11 -500.15)"/><path class="cls-1" d="M372.9,654a10.46,10.46,0,0,0-.7,2l1.34-1.38Z" transform="translate(-333.11 -500.15)"/><path class="cls-1" d="M386.27,641.9a7.82,7.82,0,0,0-1.46.41q-.37.14-.77.33l.78.76Z" transform="translate(-333.11 -500.15)"/><polygon class="cls-32" points="40.21 159.32 40.16 159.28 48.11 151.09 40.21 159.32"/><path class="cls-33" d="M373.32,659.48l7.89-8.23-7.94,8.18-.18-.17c-1.25-1.73,1-6.47,5.27-10.84s8.92-6.8,10.68-5.6l.23.22v0l5.26,21,0,.11-.11,0-21.17-4.63Z" transform="translate(-333.11 -500.15)"/><path class="cls-34" d="M389.23,643l-.18-.17.19.16Z" transform="translate(-333.11 -500.15)"/><path class="cls-35" d="M381.39,652.35a.86.86,0,0,1-.27-1.14c.24-.27.77-.21,1.16.15a1.28,1.28,0,0,1,.31.42h0l.81,1.51-1.59-.64v0A1.28,1.28,0,0,1,381.39,652.35Z" transform="translate(-333.11 -500.15)"/><path class="cls-35" d="M388.18,650.15c-.26-.46-.73-.69-1.05-.51a.85.85,0,0,0-.12,1.16,1.28,1.28,0,0,0,.34.4h0l1.29,1.13-.27-1.69h0A1.28,1.28,0,0,0,388.18,650.15Z" transform="translate(-333.11 -500.15)"/><path class="cls-35" d="M380.63,657.93c-.47-.24-.72-.71-.55-1a.85.85,0,0,1,1.15-.15,1.28,1.28,0,0,1,.41.32h0l1.16,1.26-1.7-.22v0A1.28,1.28,0,0,1,380.63,657.93Z" transform="translate(-333.11 -500.15)"/><path class="cls-2" d="M440.95,682.42c-.84,2.8.24,7.24.24,7.24l2.2.46" transform="translate(-333.11 -500.15)"/><polygon class="cls-3" points="113.66 184.81 112.26 187.91 111.92 190.36 113.18 191.66 113.66 184.81"/><polyline class="cls-4" points="114.11 184.15 114.33 192.57 113.1 192.84 113.69 183.81"/><polyline class="cls-4" points="115.83 185.65 116.55 185.75 116.52 188.06 114.23 191.61 114.23 190.58 115.38 188.67"/><polygon class="cls-5" points="113.72 191.76 116.92 190.45 119.72 189.42 113.48 193.17 113.72 191.76"/><polyline class="cls-6" points="119.87 189.09 118.03 191.73 115.84 193.27 113.93 192.67"/><polygon class="cls-7" points="117.02 193.71 120.29 193.54 122.87 192.7 125.07 191.62 123.76 193.81 121.81 194.9 119.66 194.97 117.57 194.95 117.02 193.71"/><circle class="cls-36" cx="441.13" cy="691.68" r="3.26" transform="translate(-712.06 213.85) rotate(-59.03)"/><circle class="cls-37" cx="445.97" cy="694.59" r="3.56" transform="matrix(0.51, -0.86, 0.86, 0.51, -712.2, 219.41)"/><circle class="cls-38" cx="450.95" cy="697.21" r="3.24" transform="translate(-712.03 224.96) rotate(-59.03)"/><circle class="cls-39" cx="435.98" cy="694.21" r="3.24" transform="matrix(0.51, -0.86, 0.86, 0.51, -716.72, 210.67)"/><circle class="cls-39" cx="440.44" cy="696.88" r="3.24" transform="translate(-716.85 215.79) rotate(-59.03)"/><circle class="cls-40" cx="445.57" cy="699.47" r="3.47" transform="translate(-716.58 221.44) rotate(-59.03)"/><circle class="cls-41" cx="450.86" cy="702.64" r="3.45" transform="translate(-716.73 227.51) rotate(-59.03)"/><circle class="cls-42" cx="432.12" cy="698.24" r="3.19" transform="translate(-722.05 209.32) rotate(-59.03)"/><circle class="cls-43" cx="436.28" cy="699.75" r="3.11" transform="translate(-564.58 -284.24) rotate(-22.13)"/><circle class="cls-44" cx="440.5" cy="701.47" r="3.34" transform="translate(-720.75 218.07) rotate(-59.03)"/><circle class="cls-45" cx="445.33" cy="704.37" r="3.24" transform="translate(-720.78 180.71) rotate(-56.08)"/><circle class="cls-46" cx="449.09" cy="708.3" r="3.04" transform="translate(-722.5 226.19) rotate(-58.86)"/><circle class="cls-46" cx="432.3" cy="703.77" r="3.05" transform="translate(-721.96 292.42) rotate(-64.61)"/><circle class="cls-45" cx="435.93" cy="705.2" r="3.24" transform="translate(-726.17 215.96) rotate(-59.03)"/><circle class="cls-41" cx="441.09" cy="707.35" r="3.45" transform="translate(-388.67 -462.32) rotate(-4.62)"/><circle class="cls-43" cx="445.23" cy="709.9" r="3.11" transform="translate(-725.69 226.21) rotate(-59.03)"/><circle class="cls-46" cx="432.66" cy="709.35" r="3.04" transform="translate(-731.33 212.64) rotate(-58.86)"/><circle class="cls-43" cx="436.36" cy="711.08" r="3.1" transform="translate(-731.03 216.64) rotate(-58.86)"/><circle class="cls-46" cx="440.29" cy="712.53" r="3.05" transform="translate(-730.34 223.25) rotate(-59.03)"/><path class="cls-47" d="M408.77,695l-.4.65c-4.38,7-10.28,11.18-13.16,9.36s-1.67-8.94,2.71-15.92,10.28-11.18,13.16-9.36c2.57,1.61,1.89,7.45-1.39,13.64" transform="translate(-333.11 -500.15)"/><path class="cls-48" d="M396.78,691.06l.27.3a8.76,8.76,0,0,1,1.54,2.38,9.09,9.09,0,0,1,.63,3.57c0,1.29-.56,3.42-1.75,7.64-.18.65-.37,1.27-.91,1.54-1,.53-2.91-.47-3-1.47-.07-.65.66-.85.63-1.61s-.85-1-1.54-2.1a6.09,6.09,0,0,1-.7-2.31,12.17,12.17,0,0,1-.14-3.22c.13-1.55.51-6.17,2.24-6.52.87-.17,1.83.79,2.75,1.81" transform="translate(-333.11 -500.15)"/><path class="cls-49" d="M407.47,697l1.58.33a21.2,21.2,0,0,1-2.52,4.7,9.93,9.93,0,0,1-4.35,3.15,8.28,8.28,0,0,1-4,.28c-1.1-.2-2.23-.4-2.59-1.19-.44-1,.52-2.2,2-4.07,1.64-2.12,2.49-3.22,4.07-3.64a8.71,8.71,0,0,1,3.29-.07c.71.1,1.64.35,2.1.42l.46.09" transform="translate(-333.11 -500.15)"/><path class="cls-50" d="M340.74,679a4.17,4.17,0,0,1,2.2-1.57,3.63,3.63,0,0,1,2.53.52,7.27,7.27,0,0,1,2.2,2,5.92,5.92,0,0,1,1.54,2.36,5.78,5.78,0,0,1-1,4.06c-1.18,2.09-1.58,2.44-4.49,5.37-.87.88-2.3,1.4-4.11,2.88-1.34,1.1-2,1.46-2.42,1.18-.61-.38-.59-1.77-.55-3.14a22.57,22.57,0,0,1,.77-4.85,39.18,39.18,0,0,1,1.43-5.24A10.88,10.88,0,0,1,340.74,679Z" transform="translate(-333.11 -500.15)"/><path class="cls-51" d="M342.85,682.21l-2.72-2.34-.07,0-.77,1.27.06.06,2.72,2.34a.63.63,0,0,0,1-.13A.94.94,0,0,0,342.85,682.21Z" transform="translate(-333.11 -500.15)"/><path class="cls-51" d="M341.57,689l2.6,2.52.07.05.83-1.21-.06-.07-2.6-2.52a.63.63,0,0,0-1,.06A1,1,0,0,0,341.57,689Z" transform="translate(-333.11 -500.15)"/><path class="cls-51" d="M339.07,690.56l-1.83-1.46,0,0-.36.63,0,0,1.83,1.46c.22.18.48.18.58,0A.56.56,0,0,0,339.07,690.56Z" transform="translate(-333.11 -500.15)"/><path class="cls-52" d="M348.65,680.73c0,.06,0,.18.8.46a5.79,5.79,0,0,0,2.72.58,2.71,2.71,0,0,0,2.2-.92,2.24,2.24,0,0,0,.44-1.83,1.5,1.5,0,0,0-1.21-1.18c-.63,0-.81.71-1.65,1.44C350.43,680.62,348.64,680.33,348.65,680.73Z" transform="translate(-333.11 -500.15)"/><path class="cls-52" d="M347.31,678.39c.32.69,2,.21,2.41.11a7.42,7.42,0,0,0,2.35-1.23c1.32-.92,2-1.38,2.23-2.26a3.08,3.08,0,0,0-.3-2.34,1.84,1.84,0,0,0-1.77-.9c-.53.09-.85.47-1.41,1.13s-.58,1-1.18,1.79c-.88,1.18-1.39,1.2-2,2.34C347.41,677.52,347.15,678,347.31,678.39Z" transform="translate(-333.11 -500.15)"/><path class="cls-52" d="M345.6,677.36c.61.3,2.58-2.1,2.39-3.91a5.76,5.76,0,0,0-.59-1.7c-.34-.74-.51-.83-.6-.86-.45-.17-1.1.31-1.4.92s-.14,1.08,0,2.64C345.55,676.69,345.34,677.23,345.6,677.36Z" transform="translate(-333.11 -500.15)"/><rect class="cls-53" x="417.9" y="605.35" width="5.24" height="2.39" rx="0.92" ry="0.92" transform="matrix(1, -0.02, 0.02, 1, -344.75, -491.91)"/><rect class="cls-53" x="420.89" y="605.66" width="2.39" height="2.95" rx="0.92" ry="0.92" transform="matrix(1, -0.07, 0.07, 1, -373.81, -469.73)"/><path class="cls-54" d="M429.08,612H424l1,6.46h3.77a1.24,1.24,0,0,1,0,2.48h-5a1.24,1.24,0,0,1-.82-.31l-.06-.05a1.23,1.23,0,0,1-.36-.7L421.21,611h0l0-.1a.24.24,0,0,1,0,0s0-.07,0-.11v-.16a1.24,1.24,0,0,1,1.24-1.24h6.66a1.24,1.24,0,0,1,1.24,1.24v.16A1.24,1.24,0,0,1,429.08,612Z" transform="translate(-333.11 -500.15)"/><path class="cls-55" d="M439.62,615.61s0,0,0,0,0,0,0,0v4a1.24,1.24,0,0,1-1.24,1.24h-6.25a1.26,1.26,0,0,1-1.26-1.26,1.22,1.22,0,0,1,1.22-1.22h5.05v-1.59h-5a1.24,1.24,0,0,1-1.24-1.24v-5a.38.38,0,0,1,0,0,.08.08,0,0,1,0,0,1.24,1.24,0,0,1,1.24-1.17h6.41a1.32,1.32,0,0,1,0,2.64h-5.14v2.32h5A1.24,1.24,0,0,1,439.62,615.61Z" transform="translate(-333.11 -500.15)"/><path class="cls-56" d="M432.11,609.42a1.24,1.24,0,0,0-1.24,1.17s0,0,0-.06a1.11,1.11,0,0,1,1.11-1.11Z" transform="translate(-333.11 -500.15)"/><circle class="cls-53" cx="94.21" cy="122.93" r="1.29"/><circle class="cls-53" cx="101.28" cy="122.93" r="1.29"/><path class="cls-56" d="M421.19,610.86a1.21,1.21,0,0,1,0-.26v.15S421.19,610.82,421.19,610.86Z" transform="translate(-333.11 -500.15)"/><path class="cls-54" d="M352,613.49c0-.86.18-3.15,3.26-3.15,2.76,0,3.19,1.85,3.24,2.85a.34.34,0,0,1-.29.36l-1.44.32a.43.43,0,0,1-.52-.4.87.87,0,0,0-1-.91c-1,0-1,.61-1,1.61V616c0,1,.06,1.61,1,1.61.71,0,.91-.34,1-.93a.41.41,0,0,1,.51-.38l1.47.32a.34.34,0,0,1,.29.38c-.05,1-.48,2.84-3.24,2.84-3.07,0-3.26-2.3-3.26-3.15Z" transform="translate(-333.11 -500.15)"/><path class="cls-54" d="M365.68,619.21c0,.29-.13.44-.39.44h-1.45a.35.35,0,0,1-.39-.39v-1.13a.34.34,0,0,0-.39-.39h-1.12a.35.35,0,0,0-.39.39v1.13a.34.34,0,0,1-.39.39h-1.45c-.25,0-.39-.16-.39-.44v-5.5c0-1.63.26-3.37,3.18-3.37s3.18,1.74,3.18,3.37Zm-2.23-5.5c0-.62-.09-.93-.95-.93s-.95.31-.95.93v1.41a.35.35,0,0,0,.39.39h1.12a.36.36,0,0,0,.39-.4Z" transform="translate(-333.11 -500.15)"/><path class="cls-54" d="M373.75,618.95a.46.46,0,0,1-.43.7h-1.48a.32.32,0,0,1-.3-.18l-1.35-2.61a.13.13,0,0,0-.1-.07h-.52a.39.39,0,0,0-.4.4v2a.39.39,0,0,1-.4.4h-1.45a.39.39,0,0,1-.4-.4V611a.39.39,0,0,1,.4-.4h2.84c2.31,0,3.24,1,3.24,3.11a2.89,2.89,0,0,1-1,2.54.14.14,0,0,0,0,.17Zm-4.18-6.15a.39.39,0,0,0-.4.4v1a.39.39,0,0,0,.4.4h.66c.62,0,.93-.08.93-.88s-.31-.88-.93-.88Z" transform="translate(-333.11 -500.15)"/><path class="cls-54" d="M376.42,613.19a.34.34,0,0,0-.39-.39h-1.82a.36.36,0,0,1-.39-.39V611a.35.35,0,0,1,.39-.39h6.64a.34.34,0,0,1,.39.39v1.45a.35.35,0,0,1-.39.39H379a.35.35,0,0,0-.39.39v6.07a.35.35,0,0,1-.39.39h-1.45a.35.35,0,0,1-.39-.39Z" transform="translate(-333.11 -500.15)"/><path class="cls-55" d="M390.45,613.79c-.26.05-.39-.07-.43-.32a1.05,1.05,0,0,0-1.13-.87c-.51,0-.82.3-.77.6.18,1,4.28,1,4.28,4,0,.39-.44,2.68-3.51,2.68-2.72,0-3.31-1.79-3.37-2.8a.38.38,0,0,1,.34-.43l1.47-.32c.26-.05.4.07.43.34a1.06,1.06,0,0,0,1.14,1c.64,0,1.1-.38,1-.73-.25-1.1-4.15-.86-4.15-3.84,0-.39.22-2.68,3.13-2.68,2.67,0,3.29,1.74,3.37,2.67a.38.38,0,0,1-.34.43Z" transform="translate(-333.11 -500.15)"/><path class="cls-55" d="M399.63,619.21c0,.29-.13.44-.39.44h-1.45a.35.35,0,0,1-.39-.39v-1.13a.34.34,0,0,0-.39-.39H395.9a.35.35,0,0,0-.39.39v1.13a.34.34,0,0,1-.39.39h-1.45c-.25,0-.39-.16-.39-.44v-5.5c0-1.63.26-3.37,3.18-3.37s3.18,1.74,3.18,3.37Zm-2.23-5.5c0-.62-.09-.93-.95-.93s-.95.31-.95.93v1.41a.35.35,0,0,0,.39.39H397a.36.36,0,0,0,.39-.4Z" transform="translate(-333.11 -500.15)"/><path class="cls-55" d="M402.2,610.57a.4.4,0,0,1,.43.34l1.14,5c0,.12.13.12.16,0l1.14-5a.4.4,0,0,1,.43-.34H407a.31.31,0,0,1,.34.43l-1.89,8.31a.4.4,0,0,1-.43.34h-2.41a.4.4,0,0,1-.43-.34L400.32,611a.31.31,0,0,1,.34-.43Z" transform="translate(-333.11 -500.15)"/><path class="cls-55" d="M410,610.57a.42.42,0,0,1,.44.3l1,2.41c.05.12.13.12.18,0l1-2.41a.42.42,0,0,1,.44-.3h1.85c.3,0,.43.18.3.45l-2.32,5.19a.33.33,0,0,0,0,.16v2.89a.35.35,0,0,1-.39.39h-1.82a.35.35,0,0,1-.39-.39v-2.89a.33.33,0,0,0,0-.16L407.86,611c-.13-.27,0-.45.3-.45Z" transform="translate(-333.11 -500.15)"/><path class="cls-30" d="M334.4,592.35l-.88.82,0,0a1.63,1.63,0,0,0-.37,1.44l1-1A1.81,1.81,0,0,1,334.4,592.35Z" transform="translate(-333.11 -500.15)"/><path class="cls-30" d="M335.7,597.12l-1,1a16.51,16.51,0,0,0,1.08,1.41l1-1A16.51,16.51,0,0,1,335.7,597.12Z" transform="translate(-333.11 -500.15)"/><path class="cls-30" d="M335,596a9.75,9.75,0,0,1-.49-1l-1,1a9.75,9.75,0,0,0,.49,1Z" transform="translate(-333.11 -500.15)"/><path class="cls-30" d="M337.91,599.74l-1,1c.33.32.66.63,1,.9l1-1C338.58,600.37,338.24,600.07,337.91,599.74Z" transform="translate(-333.11 -500.15)"/><path class="cls-30" d="M340,601.45l-1,1a10.58,10.58,0,0,0,1.1.66l1-1A10.58,10.58,0,0,1,340,601.45Z" transform="translate(-333.11 -500.15)"/><path class="cls-30" d="M343.88,602.54a2.07,2.07,0,0,1-1.62.06l.16.18-.92.86a1.67,1.67,0,0,0,1.51-.26l0,0Z" transform="translate(-333.11 -500.15)"/><path class="cls-31" d="M335,596h0l-1,1c.19.36.42.72.67,1.09l1-1C335.45,596.75,335.23,596.39,335,596Z" transform="translate(-333.11 -500.15)"/><path class="cls-31" d="M336.87,600.71l-.59-.61-.54-.6" transform="translate(-333.11 -500.15)"/><path class="cls-31" d="M337.32,599.14l-.54-.6-1,1,.54.6.59.61,1-1Z" transform="translate(-333.11 -500.15)"/><path class="cls-31" d="M338.93,602.42c-.35-.24-.7-.51-1.05-.8" transform="translate(-333.11 -500.15)"/><path class="cls-31" d="M338.91,600.65l-1,1c.35.29.71.56,1.05.8l1-1C339.62,601.21,339.26,600.95,338.91,600.65Z" transform="translate(-333.11 -500.15)"/><path class="cls-31" d="M341.5,603.64a5.81,5.81,0,0,1-1.47-.55" transform="translate(-333.11 -500.15)"/><path class="cls-31" d="M342.26,602.6a6.35,6.35,0,0,1-1.19-.49l-1,1a5.81,5.81,0,0,0,1.47.55l.92-.86Z" transform="translate(-333.11 -500.15)"/><path class="cls-31" d="M334.37,594.53a4.75,4.75,0,0,1-.2-.9l-1,1,.38,1.38,1-1Q334.45,594.76,334.37,594.53Z" transform="translate(-333.11 -500.15)"/><path class="cls-31" d="M333.33,595.48q.08.24.18.5l-.38-1.38A4.72,4.72,0,0,0,333.33,595.48Z" transform="translate(-333.11 -500.15)"/><path class="cls-1" d="M334.54,592.19a1.08,1.08,0,0,0-.14.16l.16-.15Z" transform="translate(-333.11 -500.15)"/><path class="cls-1" d="M344,602.41l0,0-.16.15Z" transform="translate(-333.11 -500.15)"/><path class="cls-1" d="M337.87,598.62c2.52,2.71,5.33,4.24,6.41,3.54l1-1c-1.09.71-3.89-.82-6.41-3.54s-3.85-5.62-3.06-6.65l-1,1C334,593,335.35,595.91,337.87,598.62Z" transform="translate(-333.11 -500.15)"/><path class="cls-1" d="M334.17,593.63l.86.93-.48.45a9.75,9.75,0,0,0,.49,1l.86.92-.19.17a16.51,16.51,0,0,0,1.08,1.41l.28-.26,1.13,1.21-.28.26c.33.32.66.63,1,.9l.46-.42.89,1-.29.27a10.58,10.58,0,0,0,1.1.66l.4-.37.8.86a2.07,2.07,0,0,0,1.62-.06l.16-.15.25-.24c-1.09.71-3.89-.82-6.41-3.54S334,593,334.81,592l-.25.24-.16.15A1.84,1.84,0,0,0,334.17,593.63Z" transform="translate(-333.11 -500.15)"/><path class="cls-1" d="M335,596c.19.36.42.72.67,1.09l.19-.17Z" transform="translate(-333.11 -500.15)"/><path class="cls-1" d="M337.07,598.27l-.28.26.54.6.59.61.28-.26Z" transform="translate(-333.11 -500.15)"/><path class="cls-1" d="M339.37,600.23l-.46.42c.35.29.71.56,1.05.8l.29-.27Z" transform="translate(-333.11 -500.15)"/><path class="cls-1" d="M341.06,602.12a6.35,6.35,0,0,0,1.19.49l-.8-.86Z" transform="translate(-333.11 -500.15)"/><path class="cls-1" d="M334.17,593.63a4.75,4.75,0,0,0,.2.9q.07.23.17.48l.48-.45Z" transform="translate(-333.11 -500.15)"/><polygon class="cls-32" points="11.32 101.88 11.29 101.9 6.57 96.83 11.32 101.88"/><path class="cls-33" d="M344.43,602l-4.75-5,4.72,5.07-.11.1c-1.09.71-3.89-.82-6.41-3.54S334,593,334.81,592l.14-.13h0l12.91-2.54h.07l0,.07L344.44,602Z" transform="translate(-333.11 -500.15)"/><path class="cls-34" d="M334.92,591.87l-.11.1.1-.11Z" transform="translate(-333.11 -500.15)"/><path class="cls-35" d="M340.36,596.91a.52.52,0,0,1-.7.13c-.16-.15-.1-.47.13-.7a.78.78,0,0,1,.26-.18h0l.94-.44-.44.94h0A.78.78,0,0,1,340.36,596.91Z" transform="translate(-333.11 -500.15)"/><path class="cls-35" d="M339.23,592.73c-.29.14-.44.42-.34.62a.51.51,0,0,0,.7.11.77.77,0,0,0,.25-.19h0l.72-.75-1,.11h0A.77.77,0,0,0,339.23,592.73Z" transform="translate(-333.11 -500.15)"/><path class="cls-35" d="M343.71,597.55c-.16.28-.45.41-.64.3a.52.52,0,0,1-.06-.7.78.78,0,0,1,.21-.24h0l.8-.67-.19,1h0A.77.77,0,0,1,343.71,597.55Z" transform="translate(-333.11 -500.15)"/><circle class="cls-27" cx="345.07" cy="650.47" r="7.28" transform="translate(-699.33 -40.09) rotate(-47.07)"/><polygon class="cls-57" points="18.4 143.13 15.79 143.93 17.79 145.79 18.4 143.13"/><polygon class="cls-57" points="14.73 141.11 12.57 142.77 15.09 143.81 14.73 141.11"/><polygon class="cls-57" points="11.54 140.83 10.17 143.19 12.9 143.2 11.54 140.83"/><path class="cls-2" d="M363.05,698c-.05,2.08,1.52,4.93,1.52,4.93l1.59-.1" transform="translate(-333.11 -500.15)"/><polygon class="cls-3" points="34.42 198.52 34.04 200.91 34.27 202.66 35.38 203.32 34.42 198.52"/><polyline class="cls-4" points="34.6 197.98 36.34 203.73 35.54 204.14 34.25 197.83"/><polyline class="cls-4" points="36.07 198.69 36.58 198.62 36.99 200.22 36.09 203.09 35.9 202.37 36.33 200.85"/><polygon class="cls-5" points="35.77 203.28 37.72 201.79 39.45 200.55 35.87 204.3 35.77 203.28"/><polyline class="cls-6" points="39.5 200.29 38.72 202.46 37.51 203.92 36.08 203.87"/><polygon class="cls-7" points="38.4 204 40.62 203.27 42.23 202.21 43.54 201.06 43.05 202.81 41.91 203.93 40.45 204.38 39.01 204.75 38.4 204"/><circle class="cls-8" cx="363.93" cy="707.17" r="2.29" transform="translate(-748.38 366.33) rotate(-74.32)"/><circle class="cls-8" cx="362.96" cy="703.5" r="2.35" transform="translate(-745.56 362.73) rotate(-74.32)"/><circle class="cls-9" cx="366.45" cy="704.48" r="2.41" transform="translate(-743.95 366.8) rotate(-74.32)"/><circle class="cls-10" cx="370.09" cy="705.87" r="2.35" transform="translate(-742.64 371.31) rotate(-74.32)"/><circle class="cls-9" cx="373.78" cy="707.12" r="2.41" transform="translate(-741.14 375.78) rotate(-74.32)"/><circle class="cls-11" cx="360.41" cy="706.11" r="2.41" transform="translate(-749.93 362.17) rotate(-74.32)"/><circle class="cls-11" cx="370.57" cy="709.63" r="2.29" transform="translate(-745.9 374.52) rotate(-74.32)"/><circle class="cls-12" cx="367.34" cy="708.48" r="2.29" transform="translate(-756.19 318.43) rotate(-70.52)"/><circle class="cls-12" cx="374.26" cy="710.71" r="2.33" transform="translate(-744.25 378.86) rotate(-74.32)"/><circle class="cls-13" cx="358.83" cy="709.53" r="2.23" transform="translate(-754.37 363.15) rotate(-74.32)"/><circle class="cls-14" cx="361.4" cy="710.24" r="2.44" transform="translate(-753.18 366.13) rotate(-74.32)"/><circle class="cls-15" cx="364.73" cy="711.17" r="2.44" transform="translate(-751.65 370.02) rotate(-74.32)"/><circle class="cls-16" cx="367.92" cy="712.4" r="2.27" transform="translate(-750.51 373.98) rotate(-74.32)"/><circle class="cls-17" cx="370.68" cy="712.6" r="2.21" transform="translate(-748.69 376.8) rotate(-74.32)"/><circle class="cls-18" cx="373.99" cy="713.67" r="2.35" transform="translate(-747.3 380.76) rotate(-74.32)"/><circle class="cls-19" cx="359.05" cy="713.45" r="2.13" transform="translate(-757.99 366.22) rotate(-74.32)"/><circle class="cls-20" cx="362.41" cy="714.02" r="2.33" transform="translate(-756.08 369.87) rotate(-74.32)"/><circle class="cls-21" cx="365.51" cy="714.99" r="2.23" transform="translate(-754.75 373.56) rotate(-74.32)"/><circle class="cls-22" cx="369.25" cy="716.04" r="2.36" transform="translate(-753.04 377.93) rotate(-74.32)"/><circle class="cls-19" cx="372.26" cy="716.61" r="2.16" transform="translate(-751.39 381.24) rotate(-74.32)"/><circle class="cls-23" cx="360.24" cy="717.01" r="2.22" transform="translate(-760.55 369.96) rotate(-74.32)"/><circle class="cls-24" cx="363.63" cy="717.96" r="2.22" transform="translate(-758.99 373.92) rotate(-74.32)"/><circle class="cls-25" cx="366.2" cy="718.69" r="2.22" transform="translate(-757.81 376.93) rotate(-74.32)"/><circle class="cls-26" cx="369.83" cy="719.65" r="2.17" transform="translate(-756.09 381.12) rotate(-74.32)"/><path class="cls-2" d="M355.59,568.17c2,1.76,6,2.6,6,2.6l1.22-1.62" transform="translate(-333.11 -500.15)"/><polygon class="cls-3" points="26.8 64.24 28.8 66.58 30.68 67.8 32.23 67.28 26.8 64.24"/><polyline class="cls-4" points="26.43 63.62 33.41 66.68 33.16 67.8 26 63.83"/><polyline class="cls-4" points="28.33 62.78 28.69 62.24 30.57 63.16 32.59 66.39 31.75 65.99 30.63 64.32"/><polygon class="cls-5" points="32.52 66.87 32.68 63.75 32.92 61.05 33.58 67.61 32.52 66.87"/><polyline class="cls-6" points="32.71 60.81 34.16 63.33 34.57 65.72 33.34 67.05"/><polygon class="cls-7" points="35.38 64.92 36.51 62.18 36.81 59.74 36.78 57.53 38.06 59.45 38.21 61.47 37.44 63.25 36.61 64.95 35.38 64.92"/><circle class="cls-8" cx="365.14" cy="574.87" r="2.91" transform="translate(-591.16 -199.95) rotate(-33.79)"/><circle class="cls-8" cx="360.81" cy="572.78" r="2.98" transform="translate(-590.73 -202.71) rotate(-33.79)"/><circle class="cls-9" cx="364.63" cy="570.23" r="3.06" transform="translate(-588.66 -201.02) rotate(-33.79)"/><circle class="cls-10" cx="368.98" cy="567.86" r="2.98" transform="translate(-586.61 -199) rotate(-33.79)"/><circle class="cls-9" cx="373.22" cy="565.32" r="3.06" transform="translate(-584.48 -197.07) rotate(-33.79)"/><circle class="cls-11" cx="361.22" cy="577.4" r="3.06" transform="translate(-593.23 -201.7) rotate(-33.79)"/><circle class="cls-11" cx="373" cy="570.5" r="2.91" transform="translate(-587.4 -196.32) rotate(-33.79)"/><circle class="cls-12" cx="369.23" cy="572.67" r="2.91" transform="translate(-569.94 -238.9) rotate(-29.99)"/><circle class="cls-12" cx="377.08" cy="567.83" r="2.96" transform="translate(-585.22 -194.5) rotate(-33.79)"/><circle class="cls-13" cx="363.22" cy="581.74" r="2.84" transform="translate(-595.3 -199.86) rotate(-33.79)"/><circle class="cls-14" cx="366.01" cy="579.85" r="3.1" transform="translate(-593.78 -198.62) rotate(-33.79)"/><circle class="cls-15" cx="369.66" cy="577.41" r="3.1" transform="matrix(0.83, -0.56, 0.56, 0.83, -591.81, -197.01)"/><circle class="cls-16" cx="373.48" cy="575.34" r="2.89" transform="matrix(0.83, -0.56, 0.56, 0.83, -590.01, -195.23)"/><circle class="cls-17" cx="375.96" cy="572.84" r="2.81" transform="translate(-588.2 -194.27) rotate(-33.79)"/><circle class="cls-18" cx="379.71" cy="570.53" r="2.98" transform="translate(-586.28 -192.58) rotate(-33.79)"/><circle class="cls-19" cx="367.18" cy="584.77" r="2.71" transform="translate(-596.32 -197.14) rotate(-33.79)"/><circle class="cls-20" cx="370.51" cy="581.99" r="2.96" transform="translate(-594.21 -195.76) rotate(-33.79)"/><circle class="cls-21" cx="373.99" cy="579.8" r="2.84" transform="translate(-592.4 -194.19) rotate(-33.79)"/><circle class="cls-22" cx="378.1" cy="577.06" r="3" transform="translate(-590.18 -192.37) rotate(-33.79)"/><circle class="cls-19" cx="381.12" cy="574.63" r="2.74" transform="translate(-588.32 -191.1) rotate(-33.79)"/><circle class="cls-23" cx="371.6" cy="586.56" r="2.82" transform="translate(-596.57 -194.38) rotate(-33.79)"/><circle class="cls-24" cx="375.31" cy="584.07" r="2.82" transform="matrix(0.83, -0.56, 0.56, 0.83, -594.56, -192.74)"/><circle class="cls-25" cx="378.13" cy="582.18" r="2.82" transform="matrix(0.83, -0.56, 0.56, 0.83, -593.03, -191.49)"/><circle class="cls-26" cx="382.05" cy="579.48" r="2.75" transform="translate(-590.86 -189.77) rotate(-33.79)"/><circle class="cls-27" cx="340.6" cy="560.32" r="6.28" transform="translate(-591.51 326.92) rotate(-82.71)"/><circle class="cls-28" cx="342" cy="559.49" r="3.47" transform="translate(-345.97 -492.09) rotate(-1.33)"/><polygon class="cls-29" points="6.4 59.4 8.02 58.55 8.24 56.74 9.55 58.02 11.34 57.67 10.53 59.3 11.42 60.9 9.61 60.63 8.36 61.97 8.06 60.17 6.4 59.4"/><path class="cls-30" d="M405.45,580.6l.81,1.8,0,0a2.69,2.69,0,0,0,2,1.35l-1-2.13A3,3,0,0,1,405.45,580.6Z" transform="translate(-333.11 -500.15)"/><path class="cls-30" d="M413.58,581.09l1,2.13a27.18,27.18,0,0,0,2.77-.94l-1-2.13A27.18,27.18,0,0,1,413.58,581.09Z" transform="translate(-333.11 -500.15)"/><path class="cls-30" d="M411.52,581.56a16.05,16.05,0,0,1-1.85.22l1,2.13a16.05,16.05,0,0,0,1.85-.22Z" transform="translate(-333.11 -500.15)"/><path class="cls-30" d="M418.83,579l1,2.13c.68-.34,1.33-.71,1.93-1.08l-1-2.13C420.16,578.33,419.51,578.69,418.83,579Z" transform="translate(-333.11 -500.15)"/><path class="cls-30" d="M422.57,576.74l1,2.13a17.42,17.42,0,0,0,1.62-1.36l-1-2.13A17.42,17.42,0,0,1,422.57,576.74Z" transform="translate(-333.11 -500.15)"/><path class="cls-30" d="M426.34,571.21a3.4,3.4,0,0,1-.76,2.56l.36-.16.85,1.88a2.75,2.75,0,0,0,.39-2.5l0,0Z" transform="translate(-333.11 -500.15)"/><path class="cls-31" d="M411.52,581.56h0l1,2.13c.66-.12,1.34-.27,2.06-.47l-1-2.13C412.87,581.29,412.18,581.44,411.52,581.56Z" transform="translate(-333.11 -500.15)"/><path class="cls-31" d="M419.79,581.16q-.61.31-1.26.6t-1.22.52" transform="translate(-333.11 -500.15)"/><path class="cls-31" d="M417.57,579.64q-.62.28-1.22.52l1,2.13q.61-.24,1.22-.52t1.26-.6l-1-2.13Q418.22,579.35,417.57,579.64Z" transform="translate(-333.11 -500.15)"/><path class="cls-31" d="M423.53,578.86c-.55.42-1.16.82-1.8,1.22" transform="translate(-333.11 -500.15)"/><path class="cls-31" d="M420.77,578l1,2.13c.65-.4,1.25-.8,1.8-1.22l-1-2.13C422,577.15,421.42,577.56,420.77,578Z" transform="translate(-333.11 -500.15)"/><path class="cls-31" d="M426.8,575.49a9.56,9.56,0,0,1-1.64,2" transform="translate(-333.11 -500.15)"/><path class="cls-31" d="M425.58,573.77a10.46,10.46,0,0,1-1.39,1.6l1,2.13a9.56,9.56,0,0,0,1.64-2l-.85-1.89Z" transform="translate(-333.11 -500.15)"/><path class="cls-31" d="M408.83,581.8a7.82,7.82,0,0,1-1.51-.16l1,2.13,2.35.14-1-2.13Z" transform="translate(-333.11 -500.15)"/><path class="cls-31" d="M409.75,583.92q.42,0,.87,0l-2.35-.14A7.77,7.77,0,0,0,409.75,583.92Z" transform="translate(-333.11 -500.15)"/><path class="cls-1" d="M405.27,580.29a1.77,1.77,0,0,0,.18.31l-.15-.32Z" transform="translate(-333.11 -500.15)"/><path class="cls-1" d="M426.23,570.87l0,0,.15.32A1.77,1.77,0,0,0,426.23,570.87Z" transform="translate(-333.11 -500.15)"/><path class="cls-1" d="M417.06,578.5c5.56-2.5,9.43-6.06,8.9-8.13l-1-2.13c.53,2.07-3.34,5.63-8.9,8.13s-10.8,3-12,1.26l1,2.13C406.27,581.52,411.5,581,417.06,578.5Z" transform="translate(-333.11 -500.15)"/><path class="cls-1" d="M407.32,581.64l1.9-.85.45,1a16.05,16.05,0,0,0,1.85-.22l1.89-.85.17.38a27.18,27.18,0,0,0,2.77-.94l-.26-.58,2.49-1.12.26.58c.68-.34,1.33-.71,1.93-1.08l-.42-.93,2-.88.27.59a17.42,17.42,0,0,0,1.62-1.36l-.37-.82,1.76-.79a3.4,3.4,0,0,0,.76-2.56l-.15-.32-.23-.52c.53,2.07-3.34,5.63-8.9,8.13s-10.8,3-12,1.26l.23.52.15.32A3,3,0,0,0,407.32,581.64Z" transform="translate(-333.11 -500.15)"/><path class="cls-1" d="M411.52,581.56c.66-.11,1.34-.27,2.06-.47l-.17-.38Z" transform="translate(-333.11 -500.15)"/><path class="cls-1" d="M416.09,579.57l.26.58q.61-.24,1.22-.52t1.26-.6l-.26-.58Z" transform="translate(-333.11 -500.15)"/><path class="cls-1" d="M420.35,577l.42.93c.65-.4,1.25-.8,1.8-1.22l-.27-.59Z" transform="translate(-333.11 -500.15)"/><path class="cls-1" d="M424.19,575.37a10.46,10.46,0,0,0,1.39-1.6l-1.76.79Z" transform="translate(-333.11 -500.15)"/><path class="cls-1" d="M407.32,581.64a7.82,7.82,0,0,0,1.51.16l.84,0-.45-1Z" transform="translate(-333.11 -500.15)"/><polygon class="cls-32" points="92.72 69.92 92.75 69.99 82.35 74.66 92.72 69.92"/><path class="cls-33" d="M425.84,570.08l-10.38,4.74,10.4-4.67.1.23c.53,2.07-3.34,5.63-8.9,8.13s-10.8,3-12,1.26l-.13-.29h0L407.79,558l0-.11.09.06,18,12.12Z" transform="translate(-333.11 -500.15)"/><path class="cls-34" d="M405,579.53l.1.23a1.41,1.41,0,0,1-.12-.22Z" transform="translate(-333.11 -500.15)"/><path class="cls-35" d="M415.7,573.73a.86.86,0,0,1-.17,1.16c-.32.17-.79-.09-1-.56a1.28,1.28,0,0,1-.14-.5h0l-.2-1.7,1.24,1.18v0A1.28,1.28,0,0,1,415.7,573.73Z" transform="translate(-333.11 -500.15)"/><path class="cls-35" d="M408.58,573.26c.07.53.42.91.79.87s.61-.51.54-1a1.28,1.28,0,0,0-.17-.49h0l-.78-1.52-.37,1.67h0A1.28,1.28,0,0,0,408.58,573.26Z" transform="translate(-333.11 -500.15)"/><path class="cls-35" d="M418.47,568.82c.35.4.4.92.13,1.16a.85.85,0,0,1-1.13-.28,1.28,1.28,0,0,1-.26-.45h0l-.62-1.6,1.5.83v0A1.28,1.28,0,0,1,418.47,568.82Z" transform="translate(-333.11 -500.15)"/><path class="cls-2" d="M335.44,511.82c1.44,2.54,5.39,4.84,5.39,4.84l1.85-1.27" transform="translate(-333.11 -500.15)"/><polygon class="cls-3" points="8.19 9.23 9.46 12.39 11 14.32 12.81 14.32 8.19 9.23"/><polyline class="cls-4" points="8.02 8.45 14.26 14.11 13.6 15.19 7.49 8.51"/><polyline class="cls-4" points="10.3 8.24 10.87 7.79 12.52 9.42 13.5 13.52 12.76 12.8 12.17 10.66"/><polygon class="cls-5" points="13.26 13.99 14.52 10.78 15.72 8.04 14.11 15.14 13.26 13.99"/><polyline class="cls-6" points="15.59 7.7 16.22 10.86 15.81 13.51 14.05 14.47"/><polygon class="cls-7" points="16.95 12.95 19.09 10.48 20.26 8.03 21.01 5.7 21.68 8.16 21.12 10.33 19.68 11.93 18.22 13.42 16.95 12.95"/><circle class="cls-36" cx="342.25" cy="518.11" r="3.26" transform="translate(-457.4 -391.81) rotate(-15.26)"/><circle class="cls-37" cx="347.7" cy="516.62" r="3.56" transform="translate(-456.82 -390.43) rotate(-15.26)"/><circle class="cls-38" cx="353.04" cy="514.83" r="3.24" transform="translate(-456.16 -389.09) rotate(-15.26)"/><circle class="cls-39" cx="340.52" cy="523.57" r="3.24" transform="translate(-458.9 -392.08) rotate(-15.26)"/><circle class="cls-39" cx="345.53" cy="522.2" r="3.24" transform="matrix(0.96, -0.26, 0.26, 0.96, -458.36, -390.81)"/><circle class="cls-40" cx="350.95" cy="520.28" r="3.47" transform="translate(-457.67 -389.45) rotate(-15.26)"/><circle class="cls-41" cx="356.9" cy="518.66" r="3.45" transform="translate(-457.03 -387.94) rotate(-15.26)"/><circle class="cls-42" cx="340.76" cy="529.14" r="3.19" transform="translate(-460.36 -391.82) rotate(-15.26)"/><circle class="cls-43" cx="344.72" cy="527.18" r="3.11" transform="translate(-605.54 153.03) rotate(-68.36)"/><circle class="cls-44" cx="348.89" cy="525.32" r="3.34" transform="translate(-459.07 -389.81) rotate(-15.26)"/><circle class="cls-45" cx="354.32" cy="523.84" r="3.24" transform="translate(-436.64 -412.58) rotate(-12.31)"/><circle class="cls-46" cx="359.76" cy="523.85" r="3.04" transform="translate(-457.04 -388.48) rotate(-15.08)"/><circle class="cls-46" cx="344.87" cy="532.84" r="3.05" transform="translate(-500.1 -342.61) rotate(-20.84)"/><circle class="cls-45" cx="348.42" cy="531.21" r="3.24" transform="translate(-460.63 -389.73) rotate(-15.26)"/><circle class="cls-41" cx="353.54" cy="528.97" r="3.45" transform="translate(-612.99 -31) rotate(-50.85)"/><circle class="cls-43" cx="358.24" cy="527.75" r="3.11" transform="matrix(0.96, -0.26, 0.26, 0.96, -459.37, -387.27)"/><circle class="cls-46" cx="349.15" cy="536.44" r="3.04" transform="translate(-460.68 -390.81) rotate(-15.08)"/><circle class="cls-43" cx="352.96" cy="534.97" r="3.1" transform="translate(-460.17 -389.87) rotate(-15.08)"/><circle class="cls-46" cx="356.73" cy="533.14" r="3.05" transform="translate(-460.85 -387.48) rotate(-15.26)"/><path class="cls-47" d="M395.79,531l-.44.62c-4.82,6.69-11,10.5-13.73,8.51s-1.1-9,3.72-15.72,11-10.5,13.73-8.51c2.46,1.77,1.41,7.55-2.26,13.52" transform="translate(-333.11 -500.15)"/><path class="cls-48" d="M384.08,526.3l.25.31a8.76,8.76,0,0,1,1.39,2.48,9.09,9.09,0,0,1,.4,3.61c0,1.28-.78,3.38-2.23,7.51-.22.64-.45,1.24-1,1.48-1.07.46-2.87-.66-2.91-1.66,0-.66.71-.81.73-1.57s-.78-1-1.41-2.2a6.09,6.09,0,0,1-.55-2.35,12.17,12.17,0,0,1,.06-3.23c.23-1.54.9-6.13,2.65-6.36.88-.12,1.78.91,2.63,2" transform="translate(-333.11 -500.15)"/><path class="cls-49" d="M394.37,532.94l1.55.43a21.2,21.2,0,0,1-2.82,4.53,9.93,9.93,0,0,1-4.54,2.87,8.28,8.28,0,0,1-4,0c-1.08-.27-2.2-.54-2.51-1.35-.38-1,.66-2.16,2.22-3.93,1.77-2,2.69-3.06,4.29-3.38a8.71,8.71,0,0,1,3.29.14c.7.15,1.61.45,2.07.55l.45.11" transform="translate(-333.11 -500.15)"/><path class="cls-50" d="M441.27,532.79a4.17,4.17,0,0,1,2.36-1.32,3.63,3.63,0,0,1,2.46.8,7.27,7.27,0,0,1,2,2.2,5.92,5.92,0,0,1,1.27,2.52,5.78,5.78,0,0,1-1.44,3.93c-1.41,1.95-1.84,2.25-5.05,4.84-1,.78-2.44,1.14-4.4,2.41-1.46.95-2.13,1.23-2.54.9-.57-.45-.39-1.82-.2-3.19a22.57,22.57,0,0,1,1.3-4.73,39.18,39.18,0,0,1,2-5A10.88,10.88,0,0,1,441.27,532.79Z" transform="translate(-333.11 -500.15)"/><path class="cls-51" d="M443,536.19l-2.44-2.63-.06-.06-.91,1.17.05.07,2.44,2.63a.63.63,0,0,0,1,0A.94.94,0,0,0,443,536.19Z" transform="translate(-333.11 -500.15)"/><path class="cls-51" d="M441,542.75l2.31,2.8.06.06,1-1.11-.05-.07-2.31-2.8a.63.63,0,0,0-1-.05A1,1,0,0,0,441,542.75Z" transform="translate(-333.11 -500.15)"/><path class="cls-51" d="M438.33,544.07l-1.66-1.65,0,0-.42.59,0,0,1.66,1.65c.2.2.46.23.58.06A.56.56,0,0,0,438.33,544.07Z" transform="translate(-333.11 -500.15)"/><path class="cls-52" d="M448.94,535.36c0,.06,0,.18.75.55a5.79,5.79,0,0,0,2.64.88,2.71,2.71,0,0,0,2.29-.67,2.24,2.24,0,0,0,.64-1.77,1.5,1.5,0,0,0-1.07-1.31c-.62-.09-.89.61-1.8,1.25C450.72,535.45,449,535,448.94,535.36Z" transform="translate(-333.11 -500.15)"/><path class="cls-52" d="M447.87,532.89c.24.72,2,.43,2.38.37a7.42,7.42,0,0,0,2.47-1c1.41-.76,2.12-1.15,2.46-2a3.08,3.08,0,0,0,0-2.36,1.84,1.84,0,0,0-1.66-1.1c-.53,0-.9.37-1.53,1s-.69.92-1.37,1.64c-1,1.07-1.51,1-2.22,2.11C448.07,532,447.75,532.52,447.87,532.89Z" transform="translate(-333.11 -500.15)"/><path class="cls-52" d="M446.28,531.68c.57.37,2.79-1.8,2.8-3.62a5.76,5.76,0,0,0-.39-1.75c-.26-.77-.42-.88-.5-.93-.43-.22-1.13.18-1.5.76s-.26,1.06-.31,2.62C446.31,531,446,531.52,446.28,531.68Z" transform="translate(-333.11 -500.15)"/><circle class="cls-27" cx="446.47" cy="572.78" r="7.28" transform="translate(-551.46 -219.67) rotate(-28.33)"/><polygon class="cls-57" points="121.77 67.9 119.04 67.82 120.33 70.22 121.77 67.9"/><polygon class="cls-57" points="118.94 64.8 116.36 65.67 118.41 67.47 118.94 64.8"/><polygon class="cls-57" points="116 63.51 113.95 65.31 116.53 66.19 116 63.51"/><path class="cls-2" d="M419.34,500.41c.06,2.08,1.78,4.84,1.78,4.84l1.59-.18" transform="translate(-333.11 -500.15)"/><polygon class="cls-3" points="90.73 0.68 90.48 3.1 90.8 4.83 91.94 5.43 90.73 0.68"/><polyline class="cls-4" points="90.89 0.13 92.92 5.78 92.15 6.24 90.53 0"/><polyline class="cls-4" points="92.39 0.76 92.9 0.68 93.4 2.25 92.64 5.16 92.41 4.46 92.76 2.91"/><polygon class="cls-5" points="92.33 5.37 94.2 3.77 95.87 2.44 92.49 6.38 92.33 5.37"/><polyline class="cls-6" points="95.9 2.19 95.24 4.39 94.1 5.92 92.67 5.94"/><polygon class="cls-7" points="95 5.95 97.18 5.11 98.73 3.96 99.98 2.74 99.58 4.51 98.5 5.69 97.07 6.22 95.65 6.67 95 5.95"/><circle class="cls-8" cx="420.7" cy="509.51" r="2.29" transform="translate(-501.73 308.16) rotate(-77.34)"/><circle class="cls-8" cx="419.54" cy="505.9" r="2.35" transform="translate(-499.12 304.21) rotate(-77.34)"/><circle class="cls-9" cx="423.07" cy="506.7" r="2.41" transform="translate(-497.14 308.28) rotate(-77.34)"/><circle class="cls-10" cx="426.78" cy="507.89" r="2.35" transform="translate(-495.41 312.83) rotate(-77.34)"/><circle class="cls-9" cx="430.53" cy="508.94" r="2.41" transform="translate(-493.5 317.31) rotate(-77.34)"/><circle class="cls-11" cx="417.13" cy="508.64" r="2.41" transform="translate(-503.68 304) rotate(-77.34)"/><circle class="cls-11" cx="427.46" cy="511.62" r="2.29" transform="translate(-498.52 316.41) rotate(-77.34)"/><circle class="cls-12" cx="424.17" cy="510.65" r="2.29" transform="translate(-518.84 272.59) rotate(-73.54)"/><circle class="cls-12" cx="431.2" cy="512.5" r="2.33" transform="translate(-496.46 320.74) rotate(-77.34)"/><circle class="cls-13" cx="415.73" cy="512.14" r="2.23" transform="translate(-508.18 305.37) rotate(-77.34)"/><circle class="cls-14" cx="418.33" cy="512.71" r="2.44" transform="translate(-506.71 308.34) rotate(-77.34)"/><circle class="cls-15" cx="421.7" cy="513.47" r="2.44" transform="translate(-504.81 312.23) rotate(-77.34)"/><circle class="cls-16" cx="424.95" cy="514.52" r="2.27" transform="translate(-503.31 316.22) rotate(-77.34)"/><circle class="cls-17" cx="427.73" cy="514.58" r="2.21" transform="translate(-501.2 318.98) rotate(-77.34)"/><circle class="cls-18" cx="431.08" cy="515.47" r="2.35" transform="translate(-499.45 322.95) rotate(-77.34)"/><circle class="cls-19" cx="416.15" cy="516.04" r="2.13" transform="translate(-511.66 308.83) rotate(-77.34)"/><circle class="cls-20" cx="419.54" cy="516.43" r="2.33" transform="translate(-509.39 312.44) rotate(-77.34)"/><circle class="cls-21" cx="422.69" cy="517.24" r="2.23" transform="translate(-507.72 316.14) rotate(-77.34)"/><circle class="cls-22" cx="426.48" cy="518.09" r="2.36" transform="translate(-505.59 320.5) rotate(-77.34)"/><circle class="cls-19" cx="429.51" cy="518.5" r="2.16" transform="translate(-503.63 323.78) rotate(-77.34)"/><circle class="cls-23" cx="417.53" cy="519.54" r="2.22" transform="translate(-513.99 312.9) rotate(-77.34)"/><circle class="cls-24" cx="420.96" cy="520.31" r="2.22" transform="translate(-512.06 316.85) rotate(-77.34)"/><circle class="cls-25" cx="423.57" cy="520.89" r="2.22" transform="translate(-510.6 319.86) rotate(-77.34)"/><circle class="cls-26" cx="427.24" cy="521.66" r="2.17" transform="translate(-508.48 324.04) rotate(-77.34)"/></svg>