<svg xmlns="http://www.w3.org/2000/svg" viewBox="0 0 212.87 184.74"><defs><style>.cls-1{fill:#e85f5c;}.cls-2{fill:#dbd5d3;}.cls-3{fill:#5fbdea;}.cls-4{fill:#4e86c5;}</style></defs><title>Logo FINAL</title><g id="Layer_2" data-name="Layer 2"><rect class="cls-1" x="339.1" y="152.15" width="50.75" height="23.21" rx="4.42" ry="4.42" transform="translate(-342.06 -144.67) rotate(-1.11)"/><rect class="cls-1" x="368.15" y="155.14" width="23.21" height="28.62" rx="4.42" ry="4.42" transform="translate(-349.7 -125.26) rotate(-3.94)"/></g><g id="Layer_1" data-name="Layer 1"><path class="cls-2" d="M447.5,216.45h-49L408,279h36.5a12,12,0,0,1,0,24H396.2a12,12,0,0,1-7.92-3c-.19-.17-.38-.34-.56-.52a11.91,11.91,0,0,1-3.52-6.81l-13-85.85v0l-.15-1a2.32,2.32,0,0,1,0-.37c0-.35-.05-.7-.05-1v-1.58a12,12,0,0,1,12-12H447.5a12,12,0,0,1,12,12v1.58A12,12,0,0,1,447.5,216.45Z" transform="translate(-338.96 -151.74)"/><path class="cls-3" d="M549.71,251.62c0,.11,0,.21,0,.32s0,.21,0,.31V291a12,12,0,0,1-12,12H477.09a12.18,12.18,0,0,1-12.18-12.18A11.83,11.83,0,0,1,476.74,279h49V263.62h-48.8a12,12,0,0,1-12-12v-48a3.69,3.69,0,0,1,0-.47.75.75,0,0,1,0-.15,12,12,0,0,1,12-11.38H539a12.79,12.79,0,0,1,0,25.58H489.18v22.44h48.53A12,12,0,0,1,549.71,251.62Z" transform="translate(-338.96 -151.74)"/><path class="cls-4" d="M476.91,191.6a12,12,0,0,0-12,11.38c0-.2,0-.4,0-.61a10.77,10.77,0,0,1,10.78-10.77Z" transform="translate(-338.96 -151.74)"/><circle class="cls-1" cx="91.48" cy="172.25" r="12.49"/><circle class="cls-1" cx="160.04" cy="172.25" r="12.49"/><path class="cls-4" d="M371,205.5A11.74,11.74,0,0,1,371,203v1.46C371,204.8,371,205.15,371,205.5Z" transform="translate(-338.96 -151.74)"/></g></svg>